# xmcd CD database file
#
# Track frame offsets:
#	150
#	28459
#	44836
#	71529
#	80335
#	105059
#	139596
#	150094
#	165683
#	181795
#	205587
#
# Disc length: 3033 seconds
#
# Revision: 0
# Processed by: cddbd v1.5.2PL0 Copyright (c) Steve Scherf et al.
# Submitted via: CDex 1.51
#
DISCID=820bd70b
DTITLE=Abe Rábade - Rosalía 21
DYEAR=2008
DGENRE=Jazz
TTITLE0=A xusticia pola man
TTITLE1=Padrón, Padrón, Santa María, Lestrove
TTITLE2=Ladraban contra min
TTITLE3=Cada noite eu chorando pensaba
TTITLE4=Negra sombra
TTITLE5=A Rosalía - Altares do silencio
TTITLE6=Tecín soia a miña tea
TTITLE7=Tembra un neno
TTITLE8=Miña Santiña
TTITLE9=Alborada
TTITLE10=Prólogo de Cantares Gallegos
EXTD=YEAR: 2008
EXTT0=
EXTT1=
EXTT2=
EXTT3=
EXTT4=
EXTT5=
EXTT6=
EXTT7=
EXTT8=
EXTT9=
EXTT10=
PLAYORDER=
